solid STL generated by MeshLab
  facet normal 8.079136e-001 3.900255e-001 4.417644e-001
    outer loop
      vertex  3.726000e-002 2.346000e-002 2.149000e-002
      vertex  3.763000e-002 2.309000e-002 2.114000e-002
      vertex  3.757000e-002 2.369000e-002 2.072000e-002
    endloop
  endfacet
  facet normal -4.943204e-001 -5.612246e-001 6.638329e-001
    outer loop
      vertex  1.144000e-002 -1.555000e-002 -5.650000e-003
      vertex  1.142000e-002 -1.487000e-002 -5.090000e-003
      vertex  1.086000e-002 -1.498000e-002 -5.600000e-003
    endloop
  endfacet
endsolid vcg