solid STL generated by MeshLab
  facet normal -7.666163e-001 5.973095e-001 2.356286e-001
    outer loop
      vertex  -5.490000e-003 -2.272000e-002 -4.310000e-003
      vertex  -5.790000e-003 -2.275000e-002 -5.210000e-003
      vertex  -6.070000e-003 -2.335000e-002 -4.600000e-003
    endloop
  endfacet
  facet normal 6.636272e-002 7.850349e-001 6.158864e-001
    outer loop
      vertex  6.050000e-003 -2.383000e-002 3.523000e-002
      vertex  6.980000e-003 -2.394000e-002 3.527000e-002
      vertex  6.550000e-003 -2.348000e-002 3.473000e-002
    endloop
  endfacet
  facet normal 6.661900e-002 7.788755e-001 6.236304e-001
    outer loop
      vertex  7.800000e-003 -2.386000e-002 3.507000e-002
      vertex  8.620000e-003 -2.377000e-002 3.487000e-002
      vertex  7.990000e-003 -2.358000e-002 3.470000e-002
    endloop
  endfacet
endsolid vcg
